<svg width="20" height="20" viewBox="0 0 20 20" fill="none" xmlns="http://www.w3.org/2000/svg">
<path d="M19.348 2.72971C19.9216 2.15609 19.9216 1.22609 19.348 0.652487C18.7744 0.0788644 17.8445 0.0788644 17.2709 0.652487L19.348 2.72971ZM0.652863 17.2702C0.0792541 17.8438 0.0792541 18.7739 0.652863 19.3475C1.22649 19.9211 2.1565 19.9211 2.73011 19.3475L0.652863 17.2702ZM17.2709 19.3473C17.8445 19.9209 18.7744 19.9209 19.348 19.3473C19.9216 18.7737 19.9216 17.8438 19.348 17.2702L17.2709 19.3473ZM2.73011 0.65237C2.1565 0.0787673 1.22649 0.0787673 0.652863 0.65237C0.0792541 1.22599 0.0792541 2.15599 0.652863 2.72959L2.73011 0.65237ZM17.2709 0.652487L0.652863 17.2702L2.73011 19.3475L19.348 2.72971L17.2709 0.652487ZM19.348 17.2702L2.73011 0.65237L0.652863 2.72959L17.2709 19.3473L19.348 17.2702Z" fill="#BDBDC8"/>
</svg>
