<svg width="27" height="30" viewBox="0 0 27 30" fill="none" xmlns="http://www.w3.org/2000/svg">
<path d="M12.0611 28.8742C8.27388 28.2064 4.90705 26.0615 2.70128 22.9113C0.495517 19.7611 -0.368511 15.8638 0.299277 12.0766C1.31946 6.29081 5.55788 1.68939 11.0991 0.356992C11.2944 0.309927 11.4993 0.32278 11.6872 0.393877C11.8751 0.464974 12.0372 0.591019 12.1525 0.755586C12.2677 0.920154 12.3307 1.11561 12.3332 1.3165C12.3358 1.51738 12.2778 1.71438 12.1667 1.88181C11.3367 3.13419 10.7182 4.81674 10.3781 6.74573C9.18121 13.5335 13.7298 20.0296 20.5176 21.2264C22.4466 21.5666 24.2392 21.5609 25.6999 21.2092C25.8952 21.1621 26.1002 21.175 26.2881 21.2461C26.476 21.3172 26.6381 21.4432 26.7534 21.6078C26.8686 21.7724 26.9316 21.9678 26.9341 22.1687C26.9367 22.3696 26.8786 22.5666 26.7676 22.734C23.6204 27.4853 17.8468 29.8943 12.0611 28.8742Z" fill="#201F22"/>
</svg>
